<mxfile host="app.diagrams.net" modified="2024-03-15T06:59:23.195Z" agent="Mozilla/5.0 (Macintosh; Intel Mac OS X 10_15_7) AppleWebKit/537.36 (KHTML, like Gecko) Chrome/123.0.0.0 Safari/537.36 Edg/123.0.0.0" version="24.0.6" etag="RxmP426YmUjZkohHYMAM" type="github">
  <diagram name="第 1 页" id="luUa3x-zF29XC0FdDQNf">
    <mxGraphModel>
      <root>
        <mxCell id="0" />
        <mxCell id="1" parent="0" />
      </root>
    </mxGraphModel>
  </diagram>
</mxfile>
